# xmcd
#
# Track frame offsets: 
#        150
#        24501
#        48330
#        67868
#        87673
#        105820
#        120605
#        130900
#        153562
#        170589
#        182764
#        201153
#
# Disc length: 2934 seconds
#
# Revision: 1
# Processed by: cddbd v1.5.2PL0 Copyright (c) Steve Scherf et al.
# Submitted via: ExactAudioCopy v1.0b1
#
DISCID=9b0b740c
DTITLE=Aldo Romano - Complete Communion to Don Cherry
DYEAR=2010
DGENRE=Jazz
TTITLE0=Rememberance
TTITLE1=Elephantasy
TTITLE2=Music Man
TTITLE3=Spring is here
TTITLE4=Jayne
TTITLE5=Complete Communion
TTITLE6=Don Song
TTITLE7=The Blessing
TTITLE8=Mothers of the Veil
TTITLE9=Gush !!
TTITLE10=Art Deco
TTITLE11=When will the Blues leave
EXTD=YEAR: 2010
EXTT0=
EXTT1=
EXTT2=
EXTT3=
EXTT4=
EXTT5=
EXTT6=
EXTT7=
EXTT8=
EXTT9=
EXTT10=
EXTT11=
PLAYORDER=
